<svg width="480" height="545" viewBox="0 0 480 545" fill="none" xmlns="http://www.w3.org/2000/svg">
<circle cx="240" cy="241" r="240" fill="#D2D2D2"/>
<path fill-rule="evenodd" clip-rule="evenodd" d="M138.629 397.173C138.717 390.361 138.905 383.55 139.152 376.742C150.284 375.696 161.417 374.649 172.549 373.603C175.392 373.335 178.235 373.068 181.077 372.801C184.163 372.511 187.248 372.221 190.333 371.931C190.654 371.901 191.087 371.893 191.569 371.885C193.106 371.858 195.138 371.823 195.595 371.018C196.263 369.841 195.921 366.739 195.663 364.387C195.559 363.45 195.47 362.633 195.462 362.104C195.418 359.172 195.373 356.241 195.329 353.309C195.285 350.378 195.241 347.446 195.196 344.515L195.195 344.469C194.871 322.913 194.548 301.357 194.223 279.801C196.889 279.892 199.554 279.975 202.219 280.053C203.947 280.103 205.676 280.158 207.407 280.213C217.287 280.522 227.197 280.833 237.068 280.517C242.885 280.331 248.397 278.693 253.888 276.761C256.808 275.734 259.698 274.616 262.566 273.44C262.829 273.332 263.241 273.107 263.717 272.847C264.874 272.214 266.408 271.375 267.098 271.514C268.269 271.751 270.003 274.37 271.276 276.292C271.744 276.999 272.149 277.612 272.442 277.977C275.897 282.297 279.352 286.616 282.806 290.936L282.957 291.123C283.395 291.671 283.894 292.227 284.402 292.796C285.523 294.046 286.694 295.353 287.382 296.748C287.904 297.809 288.193 299.143 288.469 300.414C288.599 301.013 288.726 301.6 288.873 302.137C294.573 322.926 300.147 343.85 304.299 365.045C305.192 369.607 306.04 374.2 306.537 378.831C306.575 379.184 306.622 379.563 306.671 379.958C306.942 382.13 307.279 384.825 306.471 386.696C305.46 389.036 302.344 390.092 300.104 390.852C299.957 390.902 299.815 390.95 299.676 390.997C295.296 392.502 290.71 393.398 286.172 394.202C275.238 396.138 264.167 397.262 253.117 398.172C251.86 398.276 250.588 398.34 249.313 398.405C247.169 398.513 245.016 398.622 242.912 398.919C242.022 399.045 241.774 398.963 241.644 399.056C241.539 399.132 241.509 399.32 241.285 399.819C240.798 400.901 240.872 402.798 240.936 404.427C240.965 405.149 240.99 405.819 240.965 406.341C240.866 408.343 240.768 410.345 240.67 412.347C240.572 414.349 240.474 416.351 240.375 418.354C239.839 429.275 239.303 440.198 238.767 451.119C238.586 454.811 238.405 458.502 238.223 462.193C237.861 469.575 237.499 476.958 237.136 484.34C237.036 486.383 236.936 488.425 236.836 490.468C236.73 492.621 236.625 494.774 236.519 496.927C236.483 497.654 236.494 498.45 236.504 499.267C236.526 500.971 236.55 502.769 236.16 504.236C235.947 505.04 236.01 505.335 235.903 505.437C235.792 505.544 235.497 505.442 234.511 505.492C231.525 505.642 228.466 505.44 225.432 505.24C223.925 505.14 222.425 505.041 220.942 504.986C218.496 504.894 216.05 504.803 213.604 504.712C210.979 504.614 208.354 504.516 205.73 504.418C205.375 504.405 205.011 504.42 204.654 504.436C203.551 504.483 202.521 504.527 202.08 503.709C201.579 502.778 201.7 500.696 201.798 499.034C201.839 498.342 201.875 497.723 201.86 497.29L201.438 484.975L200.279 451.17C200.026 443.761 199.771 436.352 199.517 428.943C199.244 420.984 198.971 413.025 198.698 405.065C193.063 406.249 187.428 407.432 181.793 408.615L181.782 408.617C173.45 410.367 165.118 412.117 156.785 413.865C155.755 414.082 154.672 414.374 153.563 414.672C150.559 415.48 147.362 416.34 144.48 415.909C140.561 415.322 138.94 413.575 138.72 409.693C138.509 405.967 138.56 402.215 138.612 398.481C138.618 398.045 138.624 397.609 138.629 397.173ZM252.33 331.203L250.931 328.392L250.322 331.495L244.399 361.728L244.116 363.169L245.523 363.071L265.795 361.67L267.436 361.556L266.678 360.034L252.33 331.203ZM246.787 360.736L251.821 335.048L264.013 359.545L246.787 360.736Z" fill="url(#paint0_linear)"/>
<path fill-rule="evenodd" clip-rule="evenodd" d="M420.701 86.5286C420.287 89.8913 420.582 93.5575 416.944 94.4443C413.577 95.2653 409.882 95.035 406.45 95.3222C402.592 95.6459 398.746 96.0871 394.896 96.4857C390.043 96.9874 390.735 95.041 389.674 90.716C388.704 86.7664 387.157 82.825 385.87 78.9734C385.272 77.1833 384.557 75.536 383.741 73.8491C383.003 72.3214 383.354 70.2442 382.558 68.9603C379.84 64.58 366.588 76.5574 365.357 74.1968C367.599 72.3753 371.48 70.3369 372.168 67.2203C372.977 63.5571 370.746 62.4631 367.942 63.8023C361.045 67.0999 353.083 69.6766 345.561 70.8783C347.994 69.1816 370 55.8066 362.614 51.8392C360.95 50.9451 358.727 52.6282 357.226 53.2648C354.843 54.2759 352.355 54.9536 349.868 55.6159C347.247 56.3138 344.62 56.9852 341.985 57.6198C340.137 58.0651 336.842 59.6466 335.041 59.2562C333.213 58.8596 336.452 57.6754 336.982 57.3964C339.294 56.1809 341.57 54.8749 343.827 53.5522C347.831 51.2054 351.53 48.4869 354.576 44.8584C356.875 42.1205 360.67 36.1417 359.07 32.3559C358.142 30.1614 356.111 28.1332 354.917 26.0543C353.523 23.626 352.398 21.0377 351.187 18.5078C353.213 19.4374 355.487 19.6753 357.555 20.5096C359.624 21.3445 361.724 22.0201 363.875 22.6407C368.192 23.8855 372.496 24.1068 376.774 25.1164C381.616 26.2588 386.661 27.5362 391.581 28.1966C395.864 28.7706 399.715 29.9938 403.385 32.4304C410.88 37.408 416.079 44.5586 418.709 53.4012C420.249 58.5813 420.624 63.9863 420.806 69.376C420.997 75.0582 421.399 80.8712 420.701 86.5286ZM378.64 86.9466C373.406 90.9276 367.305 94.0383 361.689 97.4248C358.475 99.3615 355.193 101.173 351.915 102.988C349.588 104.276 346.762 106.648 344.201 107.309C342.581 107.727 342.702 107.759 341.677 106.218C340.697 104.747 339.841 103.162 338.925 101.647C337.233 98.8523 335.527 96.0684 333.82 93.2845C329.994 87.0446 326.175 80.8054 322.155 74.6978C318.121 68.5692 314.253 62.3278 310.346 56.1127C308.53 53.2231 306.724 50.3224 304.798 47.5122C303.326 45.3664 299.554 42.0934 301.345 39.567C303.009 37.2202 306.8 35.2706 309.042 33.4942C311.783 31.3255 314.539 29.179 317.271 26.9991C323.146 22.3131 328.866 17.4231 334.735 12.7308C339.716 21.8462 345.576 30.3917 351.486 38.8663C346.141 42.4253 340.742 45.8082 335.109 48.855C330.95 51.1052 324.585 54.1458 321.958 58.4144C319.37 62.6179 321.912 67.467 326.526 67.5441C329.285 67.5904 332.036 66.8277 334.741 66.3925C336.693 66.0777 340.259 64.6091 342.02 65.644C338.855 67.7512 327.373 73.8909 333.563 79.2747C337.987 83.1226 345.466 77.5071 350.245 78.6631C348.788 81.58 347.274 86.2325 351.317 87.8185C354.682 89.139 359.085 86.6782 362.114 85.3734C364.302 84.4305 366.476 83.4554 368.627 82.4265C370.338 81.6077 372.387 79.9485 374.215 79.5955C376.349 79.1828 380.691 85.3853 378.64 86.9466ZM281.347 301.923C284.342 301.354 285.879 300.062 286.823 303.856C287.667 307.253 288.505 310.526 289.593 313.861C284.916 314.283 280.79 316.613 277.379 319.891C274.95 322.226 270.119 327.802 271.317 331.712C274.226 341.217 288.921 319.895 290.667 317.616C292.805 320.876 293.591 325.144 294.653 328.872C295.41 331.525 298.217 336.611 294.506 337.256C289.298 338.162 279.526 340.186 280.144 347.882C280.874 356.967 291.95 356.916 298.163 357.324C301.667 357.554 301.684 360.483 302.182 363.761C302.405 365.226 303.103 367.208 301.909 368.281C300.85 369.234 297.606 369.26 296.228 369.569C292.209 370.469 288.192 371.386 284.174 372.286C279.612 373.307 277.199 371.877 272.935 370.573C271.356 370.09 269.77 370.294 269.654 368.45C269.582 367.318 270.644 365.567 270.992 364.448C272.368 360.019 273.54 355.459 273.935 350.808C274.511 344.05 273.792 333.917 265.817 332.598C262.022 331.971 261.293 331.767 259.58 328.051C257.728 324.034 254.786 320.313 255.497 315.684C256.011 312.331 255.143 305.984 257.195 303.203C258.143 301.917 259.992 301.15 261.254 300.206C262.862 299.002 264.411 297.714 265.909 296.366C267.17 295.233 268.707 293.019 270.136 292.2C271.882 291.2 271.935 291.882 273.189 293.444C275.04 295.752 277.983 302.564 281.347 301.923ZM289.811 316.938C288.773 319.123 286.375 321.156 284.847 322.979C283.311 324.814 281.857 326.753 280.143 328.416C278.257 330.247 271.557 334.668 273.033 328.717C274.182 324.088 278.479 320.339 282.263 318.029C282.995 317.581 291.567 313.241 289.811 316.938ZM297.14 338.975C297.804 342.073 298.162 345.267 298.729 348.387C299.019 349.983 300.627 353.837 299.972 355.371C298.861 357.972 288.866 354.893 286.794 353.998C281.861 351.868 279.597 346.399 284.146 342.504C285.871 341.028 296.476 335.878 297.14 338.975ZM303.693 376.185C304.25 379.143 305.878 381.885 303.186 384.121C300.95 385.978 297.288 387.245 294.533 387.906C290.778 388.806 289.571 386.611 287.584 383.788C285.447 380.751 283.171 377.818 280.811 374.967C288.224 373.235 295.635 371.504 303.049 369.773C303.044 371.928 303.295 374.074 303.693 376.185ZM285.932 389.912C282.066 389.704 277.908 390.917 273.987 391.237C269.091 391.636 264.209 392.216 259.308 392.559C260.564 388.38 262.819 384.652 264.583 380.704C266.352 376.742 267.595 376.314 271.666 376.009C275.438 375.725 278.099 374.371 280.882 377.71C283.779 381.183 286.402 384.956 289.046 388.638C288.147 389.266 287.072 389.975 285.932 389.912ZM258.3 390.765C257.346 391.49 254.405 389.429 253.414 389.03C251.486 388.252 251.058 388.002 250.052 386.04C249.188 384.353 247.812 382.436 247.542 380.51C247.184 377.971 248.261 374.629 248.653 372.106C249.697 374.732 253.122 375.038 255.438 375.467C257.189 375.792 262.376 375.274 263.696 376.575C265.154 378.012 262.47 382.021 261.769 383.53C260.935 385.333 259.903 389.547 258.3 390.765ZM256.431 392.848C255.284 393.042 251.98 394.233 252.046 392.046C252.121 389.547 256.665 392.242 256.431 392.848ZM250.611 392.717C250.401 394.821 246.062 394.646 245.962 392.796C245.793 389.668 250.944 389.357 250.611 392.717ZM245.649 335.978C244.54 339.275 237.783 340.454 235.188 341.469C232.818 342.396 225.739 346.675 223.295 345.123C231.566 339.191 240.042 333.379 247.051 325.805C247.338 327.676 246.9 329.239 246.372 331.009C245.895 332.608 246.14 334.518 245.649 335.978ZM243.592 348C242.401 356.075 241.233 364.257 239.623 372.251C236.554 371.273 234.022 369.29 230.798 368.599C227.855 367.968 224.816 367.953 221.849 368.413C215.526 369.394 209.889 372.657 204.373 375.838C203.864 370.3 202.809 364.373 202.934 358.816C203.037 354.199 210.608 352.832 214.042 350.926C216.12 349.772 217.998 348.149 220.365 347.747C222.801 347.333 225.152 347.345 227.558 346.571C233.246 344.74 238.6 341.836 244.173 339.672C244.629 342.444 243.995 345.268 243.592 348ZM238.276 382.176C238.023 384.011 238.342 387.287 237.001 388.686C235.739 390.004 233.043 390.047 231.378 390.405C226.306 391.493 221.24 392.592 216.176 393.716C213.91 394.218 211.644 394.698 209.368 395.147C208.283 395.361 205.562 396.446 204.648 395.545C203.781 394.69 204.426 391.957 204.473 390.81C204.567 388.519 204.691 386.222 204.553 383.93C204.289 379.535 204.523 377.852 208.444 375.578C212.609 373.162 216.91 371.508 221.599 370.612C226.345 369.706 230.867 370.202 235.385 372.103C236.642 372.632 238.528 373.284 239.113 374.698C239.909 376.623 238.544 380.225 238.276 382.176ZM232.567 453.022C230.708 454.238 226.662 454.03 224.527 454.278C221.079 454.675 217.609 454.448 214.184 453.893C211.605 453.476 207.757 452.897 205.781 451.008C202.972 448.324 206.213 448.201 208.362 448.39C214.609 448.938 220.935 448.555 227.176 448.084C228.392 447.992 231.657 446.88 232.829 447.401C234.328 448.066 233.868 452.17 232.567 453.022ZM229.025 496.394C217.385 495.214 210.637 485.157 206.416 474.876C204.15 469.356 204.967 463.565 204.743 457.728C204.703 456.662 204.061 454.016 205.112 453.22C206.098 452.471 210.092 454.785 211.171 455.061C216.708 456.477 222.831 456.612 228.379 455.237C230.782 454.641 232.128 453.534 232.892 456.019C233.507 458.021 232.498 461.709 232.388 463.807C232.198 467.435 232.742 496.77 229.025 496.394ZM205.772 496.405C205.728 494.644 204.877 476.842 205.703 476.788C208.158 482.315 210.681 487.26 215.151 491.326C217.435 493.404 220.003 495.276 222.859 496.392C223.931 496.811 230.011 497.128 230.309 498.518C230.83 500.949 226.68 499.968 225.449 499.77C224.461 499.611 223.572 499.171 222.603 498.988C220.757 498.639 219.012 499.108 217.158 499.147C214.341 499.207 211.574 498.899 208.756 499.153C206.179 499.385 205.841 499.076 205.772 496.405ZM207.491 416.559C217.455 413.198 225.782 419.562 231.041 427.892C234.04 432.643 234.71 435.964 234.186 441.589C233.998 443.602 234.345 444.965 232.57 445.786C230.815 446.599 226.825 445.996 224.925 446.089C219.46 446.355 214.017 446.709 208.552 446.37C205.003 446.151 204.502 445.524 204.563 441.929C204.636 437.601 204.291 433.293 204.057 428.958C203.802 424.269 202.259 418.322 207.491 416.559ZM204.23 410.325C204.236 407.145 204.053 403.883 204.239 400.708C204.425 397.56 205.709 397.716 208.556 397.179C214.724 396.016 220.883 394.714 226.967 393.137C229.374 392.513 232.092 391.316 234.599 391.306C237.23 391.297 237.09 392.708 236.915 395.138C236.525 400.521 235.58 405.825 235.292 411.179C234.982 416.959 234.819 422.813 234.844 428.598C234.853 430.551 235.308 431.997 233.712 430.17C232.115 428.339 231.333 425.422 229.906 423.364C226.984 419.151 222.641 415.762 217.823 414.335C215.158 413.546 212.355 413.409 209.639 413.98C208.814 414.153 204.686 416.209 204.161 415.803C203.805 415.528 204.229 410.454 204.23 410.325ZM240.683 520.532C244.635 523.485 249.012 525.871 253.442 527.942C255.935 529.107 265.803 531.56 266.118 534.183C266.286 535.583 264.651 537.151 263.58 537.316C262.221 537.526 259.982 536.6 258.598 536.425C253.565 535.788 248.543 535.783 243.632 534.321C233.827 531.402 223.663 530.58 213.756 528.034C211.399 527.429 209.037 526.862 206.668 526.313C204.418 525.792 203.41 525.882 203.33 523.372C203.155 517.865 204.669 512.223 204.681 506.648C212.695 507.602 220.737 507.59 228.772 508.375C232.216 508.712 232.135 509.392 233.645 512.532C235.211 515.789 237.876 518.435 240.683 520.532ZM201.608 341.615C201.507 339.576 201.427 337.533 201.251 335.5C201.132 334.133 199.936 330.316 200.61 329.252C201.412 327.989 202.218 328.76 203.652 328.724C205.541 328.678 207.123 327.885 208.681 326.848C211.632 324.885 213.825 322.3 215.74 319.283C217.425 316.628 217.111 313.001 217.091 309.822C217.037 301.601 217.611 293.583 217.13 285.326C216.91 281.533 220.013 283.859 222.518 284.351C226.617 285.154 231.071 284.597 235.236 284.608C235.082 285.619 226.564 288.128 225.188 289.084C221.665 291.528 219.611 295.439 219.932 299.898C220.579 308.868 230.047 310.367 236.965 310.384C231.225 315.68 225.588 320.729 221.077 327.262C217.751 332.078 211.892 341.575 217.33 346.904C212.524 349.752 207.76 352.921 202.323 354.292C202.079 350.067 201.819 345.842 201.608 341.615ZM199.426 177.874C201.383 179.186 202.206 177.331 203.695 176.371C205.792 175.018 206.487 175.151 206.753 172.129C207.245 166.525 204.985 161.452 202.148 156.866C200.859 154.781 199.573 152.298 197.752 150.669C196.093 149.183 194.416 149.695 192.878 148.159C192.275 147.555 192.404 146.703 191.406 146.727C190.749 146.743 189.153 148.867 188.61 149.336C186.896 150.816 184.799 151.943 182.553 150.722C179.282 148.945 180.332 142.495 182.873 140.406C184.829 138.797 187.141 139.046 189.368 138.786C191.037 138.592 191.385 138.668 190.698 136.673C190.217 135.277 189.107 134.188 188.559 132.822C187.505 130.199 187.734 127.012 187.279 124.237C186.871 121.75 185.915 119.06 185.949 116.534C185.995 113.318 187.002 112.483 189.672 111.581C192.259 110.708 194.402 108.782 196.606 107.165C199.1 105.334 201.831 104.125 204.395 102.453C206.135 101.317 207.258 99.0213 209.171 100.094C211.445 101.368 213.85 105.056 215.783 106.941C212.954 108.815 212.296 109.634 212.686 113.303C213.043 116.665 213.7 119.662 216.164 122.005C217.11 122.905 218.875 123.626 219.609 124.664C220.465 125.873 219.909 124.807 219.801 126.172C219.743 126.909 219.185 127.39 219.306 128.241C219.849 132.02 224.01 129.79 225.725 128.477C231.852 123.786 220.412 120.061 217.695 118.352C215.819 117.171 214.891 113.403 217.864 114.404C219.841 115.069 224.308 120.715 224.762 115.569C229.665 118.541 232.692 124.855 236.803 128.847C239.768 131.727 243.751 134.921 241.397 139.519C238.398 145.38 232.452 148.041 227.022 150.57C221.756 153.022 222.85 159.963 225.664 164.212C227.292 166.668 229.424 168.107 231.989 169.301C234.609 170.52 235.154 171.953 235.726 174.782C236.362 177.92 235.686 179.184 233.082 180.805C230.54 182.389 227.881 183.923 225.167 185.162C219.297 187.842 213.207 188.012 206.964 188.925C204.776 189.245 202.678 189.912 201.484 187.648C200.142 185.101 200.043 180.714 199.426 177.874ZM198.482 165.685C197.013 164.876 193.466 167.56 191.609 167.678C188.604 167.868 186.631 167.796 183.964 169.459C178.922 172.603 174.738 176.649 170.695 181.039C166.141 185.982 161.613 190.952 157.075 195.91C155.017 198.155 152.95 200.39 150.861 202.602C149.214 204.345 147.604 206.797 145.566 208.041C145.672 206.564 146.54 205.518 146.848 204.148C147.028 203.347 146.714 202.667 146.831 201.9C146.868 201.651 147.509 200.786 147.607 200.502C147.867 199.753 148.185 199.012 148.494 198.234C148.782 197.508 148.74 196.755 149.032 195.997C149.332 195.215 150.156 194.697 150.441 193.927C151.278 191.672 149.893 190.627 147.678 190.68C148.544 186.17 148.923 183.963 153.443 182.373C157.761 180.853 161.98 179.147 165.947 176.772C169.469 174.664 172.408 171.625 175.794 169.276C178.825 167.172 182.599 164.967 182.567 160.653C184.286 161.869 185.897 162.893 187.863 161.682C189.522 160.66 189.742 159.836 191.661 159.643C193.227 159.487 194.197 159.445 195.595 160.164C197.239 161.009 197.464 161.597 198.422 159.109C199.51 160.064 202.261 164.046 202.17 165.622C202.12 166.491 201.993 166.882 200.962 167.111C199.5 167.436 199.557 166.275 198.482 165.685ZM191.631 401.341C190.916 402.484 187.901 402.274 186.738 402.259C183.189 402.21 181.949 399.103 180.392 396.101C177.938 391.367 174.27 381.535 178.296 376.567C181.474 372.645 187.664 377.586 189.833 380.547C191.705 383.106 191.148 386.942 191.323 390.013C191.47 392.6 193.043 399.085 191.631 401.341ZM181.937 403.056C180.518 404.535 175.915 404.222 174.035 404.541C170.68 405.107 167.344 405.788 164.089 406.822C161.666 407.592 159.271 409.662 158.633 406.138C158.096 403.175 158.363 399.621 158.414 396.631C158.47 393.404 158.793 390.219 159.062 387.007C159.244 384.835 158.788 380.839 160.488 379.172C161.952 377.735 165.513 377.597 167.415 377.121C170.537 376.339 173.799 375.313 177.044 375.663C175.151 381.026 174.99 386.649 177.021 391.993C177.6 393.518 182.813 402.141 181.937 403.056ZM158.078 381.693C157.286 389.759 156.491 397.876 157.253 405.983C157.299 406.466 157.852 408.681 157.612 409.027C157.363 409.387 155.392 409.572 154.945 409.682C153.169 410.122 151.394 410.588 149.606 410.979C146.126 411.738 145.672 409.444 144.989 406.078C143.526 398.868 146.362 391.05 148.08 384.125C148.917 380.753 149.537 380.364 152.716 380.084C154.927 379.89 158.414 378.266 158.078 381.693ZM144.639 411.786C143.309 413.049 141.98 407.094 141.862 406.486C141.398 404.076 141.656 401.632 141.663 399.185C141.674 395.361 141.394 391.555 141.388 387.75C141.385 385.691 139.907 381.484 142.242 380.394C142.927 380.075 145.648 380.208 146.265 380.628C147.548 381.503 147.043 382.069 146.662 383.589C145.811 387.002 145.075 390.43 144.334 393.87C143.608 397.243 142.89 400.489 143.237 403.973C143.35 405.125 145.486 410.982 144.639 411.786ZM187.053 374.203C190.295 373.25 190.468 375.841 190.463 378.322C189.969 377.927 185.362 374.7 187.053 374.203ZM143.687 192.127C142.892 193.493 137.86 193.866 136.423 194.226C133.594 194.933 130.764 195.635 127.943 196.371C122.657 197.75 117.502 199.305 112.083 200.027C115.059 195.057 115.985 190.765 115.431 184.561C114.733 176.73 113.845 168.978 112.117 161.312C110.414 153.752 108.441 146.243 106.541 138.734C105.608 135.045 104.599 131.426 103.358 127.836C102.363 124.96 100.809 121.338 102.498 118.389C106.784 121.651 110.221 125.166 112.666 130.122C115.285 135.435 117.571 140.889 120.611 145.972C122 148.296 123.623 150.415 125.11 152.665C125.994 154.003 126.638 155.935 127.765 157.064C129.063 158.365 130.448 158.979 131.19 156.783C131.987 154.426 129.446 149.763 128.697 147.549C126.886 142.207 125.09 136.875 123.694 131.394C122.564 126.964 120.697 121.608 121.357 116.934C122.012 112.306 125.021 115.618 126.544 117.77C129.683 122.205 131.562 127.375 133.625 132.404C135.52 137.023 137.731 141.428 139.829 145.941C140.558 147.511 141.52 151.568 143.431 152.034C146.21 152.714 145.975 148.631 145.709 146.975C143.948 135.993 139.352 125.478 138.398 114.306C138.352 113.772 137.688 109.621 138.222 109.274C139.258 108.602 140.655 112.813 141.102 113.845C143.426 119.212 145.045 124.869 146.53 130.538C147.794 135.36 148.936 140.217 150.354 144.993C151.133 147.617 152.025 150.199 152.906 152.788C153.702 155.134 154.511 159.142 156.588 160.687C159.534 162.88 170.078 157.667 171.147 162.327C171.907 165.64 162.13 168.308 160.048 169.313C157.306 170.638 154.618 172.087 151.875 173.413C149.799 174.416 146.815 174.827 145.313 176.714C143.722 178.713 143.467 181.52 143.419 183.999C143.383 185.876 144.629 190.507 143.687 192.127ZM137.023 228.299C136.883 229.34 136.09 230.718 135.733 231.709C135.007 233.727 134.39 236.139 133.379 238.025C132.511 239.649 131.228 241.101 130.388 242.749C129.592 244.313 129.486 246.117 128.555 247.683C127.49 249.473 125.731 250.76 124.674 252.538C124.153 253.416 123.615 254.418 122.879 255.351C120.272 258.662 117.683 261.784 115.586 265.33C115.05 266.238 112.431 270.2 111.389 270.415C109.21 270.861 111.746 267.629 112.172 266.961C115.259 262.127 118.001 257.037 120.981 252.127C123.868 247.374 126.822 242.657 129.6 237.832C131.866 233.898 133.432 228.25 137.114 225.479C137.128 226.421 137.098 227.361 137.023 228.299ZM237.693 183.868C239.486 191.561 241.631 199.015 243.653 206.639C245.529 213.713 248.025 221.283 248.803 228.576C249.573 235.8 251.343 243.109 253.724 249.966C254.824 253.139 255.956 256.324 257.151 259.46C257.806 261.182 258.54 262.866 259.286 264.549C259.864 265.856 261.392 267.973 261.451 269.358C261.497 270.467 261.866 270.024 260.817 270.858C259.731 271.72 257.849 271.407 256.584 271.559C253.284 271.957 250.065 273.253 246.848 274.092C240.643 275.71 233.248 276.994 226.89 275.868C224.215 275.394 221.437 274.984 218.793 274.367C215.539 273.607 214.87 272.202 214.202 268.866C212.742 261.57 211.484 254.293 210.278 246.95C208.844 238.214 207.292 229.488 206.185 220.699C205.068 211.806 204.264 202.905 202.513 194.109C209.578 195.342 216.232 196.735 223.317 194.715C229.592 192.926 234.122 189.43 237.693 183.868ZM265.349 279.107C266.929 282.503 263.122 285.557 261.277 288.173C258.844 291.622 256.572 295.224 253.742 298.343C252.892 294.799 252.148 290.81 249.882 287.899C246.989 284.182 243.613 285.701 240.069 283.942C243.785 282.056 248.532 282.776 252.475 281.093C256.364 279.434 260.291 278.132 263.91 275.976C264.391 277.019 264.865 278.065 265.349 279.107ZM251.564 358.355C249.189 358.492 250.778 353.265 250.932 351.966C251.357 348.395 251.785 344.825 252.157 341.248C254.117 346.641 256.076 352.034 258.036 357.427C255.882 357.747 253.742 358.228 251.564 358.355ZM247.7 384.207C248.024 384.959 249.536 387.463 248.342 387.925C246.707 388.558 246.511 384.409 247.7 384.207ZM244.866 326.109C237.298 332.414 229.783 338.734 221.594 344.162C219.801 345.351 217.994 345.848 216.804 343.491C215.871 341.636 216.857 339.547 217.457 337.732C218.986 333.105 221.649 329.082 224.6 325.315C230.494 317.794 237.51 311.37 246.462 308.404C247.927 307.919 250.188 306.455 250.7 308.477C251.003 309.666 249.724 312.636 249.465 313.751C248.395 318.36 248.629 322.976 244.866 326.109ZM266.65 372.087C266.817 377.44 252.792 373.123 251.044 372.165C252.878 371.524 266.575 369.681 266.65 372.087ZM271.858 372.121C272.692 372.352 275.887 372.646 274.694 373.786C273.626 374.806 268.787 374.397 267.504 374.522C268.366 371.569 269.02 371.332 271.858 372.121ZM269.26 364.95C268.947 366.141 268.819 367.958 267.796 368.774C266.522 369.791 263.813 369.173 262.371 369.181C259.92 369.195 257.472 369.325 255.034 369.58C254.101 369.676 250.322 370.864 249.447 370.054C248.805 369.459 249.045 366.665 249.513 366.037C250.473 364.746 252.685 365.193 254.071 365.142C259.142 364.953 264.186 364.937 269.26 364.95ZM266.004 345.163C265.289 344.052 265.161 344.064 264.855 342.388C264.529 340.593 263.699 339.058 263.211 337.324C262.136 333.509 265.568 333.848 268.085 335.247C274.615 338.876 273.039 351.56 271.424 357.498C269.076 355.696 268.21 354.88 267.402 351.974C267.095 350.87 266.751 349.785 266.432 348.688C266.197 347.879 266.36 345.715 266.004 345.163ZM266.569 283.434C268.393 283.204 270.06 289.106 269.54 290.383C268.474 292.996 264.401 295.33 262.326 296.997C260.945 298.108 259.574 299.38 258.097 300.349C256.727 301.247 255.939 300.743 254.664 301.174C252.82 301.797 252.373 303.833 250.486 304.708C247.83 305.94 244.611 306.284 241.837 307.396C238.472 308.745 235.387 308.782 231.858 308.142C226.784 307.224 220.835 304.597 221.293 298.162C222.099 286.81 243.706 280.993 249.599 290.619C251.132 293.124 251.109 296.045 252.104 298.736C253.183 301.648 254.228 300.503 255.851 298.359C257.973 295.552 259.944 292.595 261.983 289.721C262.643 288.792 265.254 283.601 266.569 283.434ZM134.153 393.964C134.049 395.894 134.16 397.853 133.517 399.695C132.868 401.553 131.554 403.055 130.797 404.861C129.262 408.519 129.273 412.947 129.335 416.867C129.478 425.99 131.548 434.85 132.643 443.863C128.998 443.854 125.23 443.897 121.698 442.81C118.542 441.838 118.039 439.432 117.146 436.4C114.64 427.884 111.934 419.404 111.125 410.486C110.74 406.236 110.578 401.951 110.394 397.688C110.234 393.947 111.038 392.316 114.274 390.464C121.308 386.438 128.599 383.087 135.561 378.87C134.849 383.873 134.424 388.915 134.153 393.964ZM434.423 95.0754C432.711 94.7471 430.982 94.5423 429.254 94.3269C428.353 94.2147 425.543 94.371 424.868 93.7579C424.064 93.0281 425.455 87.5097 425.526 86.3253C425.961 79.2044 425.456 71.8631 424.83 64.7692C423.697 51.9262 419.826 40.0283 410.895 30.7807C406.45 26.1774 401.452 22.5253 395.381 20.7628C391.844 19.7359 388.199 19.1883 384.654 18.1926C381.795 17.3883 379.127 16.4678 376.157 16.1491C370.231 15.5132 364.816 13.1775 359.034 11.8262C354.78 10.832 347.938 8.47397 345.18 13.4857C343.01 10.8292 340.826 8.83439 338.088 6.85278C335.465 4.9547 335.037 3.05871 331.826 5.25043C325.586 9.50931 319.742 14.7047 313.915 19.5501C308.472 24.0754 303.205 28.8144 297.501 32.9759C291.683 37.2209 292.786 44.4243 295.522 50.3962C300.67 61.6368 308.609 71.2462 315.559 80.8809C319.911 86.9167 324.279 92.9608 328.614 99.0086C332.759 104.789 336.345 111.479 341.188 116.672C344.242 119.946 347.887 115.665 350.643 113.687C354.064 111.23 357.424 108.681 360.849 106.232C367.981 101.129 375.612 96.3496 383.141 91.9079C383.688 93.5276 384.236 95.1472 384.783 96.7676C383.13 96.8969 380.896 96.5111 380.055 98.3662C378.853 101.016 381.802 101.363 382.32 102.883C382.782 104.239 380.888 107.822 380.327 109.045C379.068 111.8 377.308 114.174 375.37 116.442C367.702 125.415 357.999 131.834 348.154 137.952C337.619 144.498 326.328 148.495 314.794 152.713C308.929 154.857 302.842 155.854 296.79 157.227C290.958 158.55 285.131 160.289 279.172 160.788C266.981 161.809 254.043 162.574 241.999 159.83C240.68 159.531 239.285 158.88 237.944 158.757C236.868 158.657 236.072 159.128 235.057 159.188C232.877 159.318 231.628 157.284 229.897 159.174C229.03 160.119 229.015 161.706 227.808 159.942C226.272 157.698 230.198 157.264 231.652 156.625C236.55 154.472 240.487 150.139 243.6 145.758C246.709 141.38 247.156 136.706 245.263 131.58C243.37 126.458 239.065 122.985 235.833 118.825C234.27 116.81 232.831 114.679 231.114 112.799C230.198 111.794 228.721 110.833 228.663 109.819C228.597 108.642 229.272 108.057 228.868 106.626C228.764 106.253 228.316 106.042 228.22 105.633C228.069 104.981 228.303 104.422 228.224 103.786C228.043 102.329 227.495 101.414 226.72 100.221C226.238 99.4744 225.531 97.9812 224.867 97.4226C223.702 96.443 222.114 96.8423 220.93 95.8493C219.057 94.279 218.398 90.9703 216.741 89.0635C214.408 86.3806 213.91 89.0912 211.438 88.2365C209.325 87.5045 209.349 84.1859 207.641 83.0636C205.236 81.4828 203.21 84.3916 201.073 85.0391C198.263 85.8916 199.343 82.5828 196.837 82.2814C194.575 82.0092 191.442 86.7971 190.314 88.4975C189.164 87.0999 187.907 84.7183 185.839 85.5715C183.668 86.4673 183.282 90.6368 181.695 92.124C181.142 92.6415 181.259 93.0228 180.579 93.2614C179.7 93.5679 178.53 92.2377 177.394 92.643C175.103 93.4618 175.382 96.6517 175.378 98.7184C172.675 98.3064 170.789 98.0963 169.884 101.136C168.998 104.111 168.662 102.798 165.812 103.765C163.356 104.597 163.012 107.032 162.606 109.413C162.355 110.893 162.587 111.498 162.969 112.848C163.451 114.548 163.451 114.527 162.665 116.15C161.297 118.982 161.216 122.102 160.997 125.219C160.765 128.544 160.207 131.571 161.113 134.82C161.673 136.83 161.716 139.565 163.603 140.69C164.351 141.137 165.622 140.892 166.259 141.335C167.475 142.18 167.105 143.465 167.915 144.699C168.521 145.622 169.5 145.711 170.179 146.46C170.918 147.275 170.963 148.267 171.383 149.262C172.629 152.206 173.801 153.631 169.74 153.799C167.235 153.903 164.562 154.687 162.067 154.446C159.123 154.163 158.391 152.446 157.453 149.831C152.73 136.654 150.192 122.372 143.971 109.842C142.605 107.09 136.999 95.8508 134.629 104.04C132.631 110.947 135.252 119.376 136.258 126.251C133.104 123.286 131.937 117.943 129.542 114.322C127.774 111.646 122.235 105.077 118.987 108.841C116.429 111.809 117.068 118.101 117.541 121.648C118.287 127.261 120.006 132.669 121.233 138.174C119.688 136.064 118.925 133.488 117.852 131.112C116.507 128.133 114.829 125.307 112.916 122.689C111.245 120.402 109.376 118.275 107.349 116.325C105.8 114.833 103.027 111.568 100.828 111.392C95.1669 110.939 96.9471 121.773 97.8092 124.87C99.5965 131.29 101.534 137.533 102.921 144.082C105.633 156.878 108.917 169.378 110.915 182.336C111.357 185.209 111.89 187.502 110.801 190.264C109.841 192.698 108.846 195.607 107.075 197.478C103.067 201.715 99.7384 206.239 96.7421 211.343C93.533 216.811 90.2293 222.342 87.6099 228.146C86.4052 230.816 85.4199 233.705 84.0353 236.273C82.7855 238.591 81.2834 240.423 80.3948 242.99C76.1494 255.255 73.0062 267.305 71.5671 280.292C70.3854 290.954 71.4862 305.137 83.8239 307.632C89.4918 308.778 94.5807 306.156 99.6918 303.991C104.978 301.753 108.8 298.114 113.112 294.246C118.469 289.441 124.032 284.933 129.446 280.208C134.863 275.48 139.867 270.237 145.255 265.459C150.576 260.737 155.39 255.724 159.992 250.242C164.557 244.804 168.265 238.779 172.685 233.264C172.668 240.404 171.653 247.478 171.368 254.608C171.108 261.145 171.101 267.675 171.354 274.209C171.607 280.739 169.954 286.954 169.94 293.47C169.926 299.826 169.684 306.145 169.551 312.494C169.491 315.343 168.956 318.538 169.976 321.286C170.738 323.337 173.131 323.979 175.174 324.532C178.33 325.386 187.825 323.741 189.234 327.259C190.004 329.178 189.229 332.673 189.289 334.794C189.389 338.29 189.512 341.785 189.626 345.28C189.745 348.89 189.861 352.5 189.987 356.108C190.099 359.288 190.691 362.831 190.324 365.979C190.01 368.678 188.502 368.325 186.112 368.463C182.505 368.671 178.897 368.839 175.288 369.002C169.995 369.245 164.471 369.134 159.395 369.786C157.264 370.06 154.935 369.943 152.687 370.39C149.867 370.949 147.263 371.091 144.403 371.239C142.097 371.358 139.133 371.183 137.321 372.962C136.694 373.579 136.552 374.314 136.107 375.001C135.272 376.288 135.737 375.949 134.367 376.238C129.02 377.369 123.941 378.644 118.712 380.545C116.094 381.497 113.665 382.776 111.035 383.671C108.73 384.456 107.041 385.422 105.902 387.783C103.866 391.999 104.382 398.1 104.529 402.644C104.761 409.733 106.271 416.482 107.898 423.338C109.592 430.471 110.919 437.795 114.214 444.347C115.296 446.501 116.465 449.248 118.676 450.37C121.53 451.819 125.92 450.941 129.036 450.946C131.126 450.95 136.727 451.699 138.29 449.87C139.802 448.099 138.28 443.103 138.067 440.904C137.318 433.201 135.97 425.426 135.988 417.67C137.693 420.299 140.65 424.838 143.61 420.81C144.338 419.819 144.054 419.358 145.347 418.783C146.062 418.465 147.571 418.27 148.35 418.325C149.41 418.399 149.802 418.844 150.775 418.627C151.637 418.434 152.606 417.629 153.594 417.384C165.844 414.346 178.023 411.072 190.326 408.365C193.579 407.649 193.116 410.255 193.331 413.189C193.569 416.434 193.116 419.712 193.547 422.921C193.923 425.713 194.215 428.434 193.686 431.243C193.063 434.556 193.464 437.32 194.085 440.601C196.478 453.252 196.05 466.973 196.59 479.831C196.871 486.528 196.268 493.366 196.872 500.027C197.099 502.543 198.445 503.933 198.991 506.221C199.617 508.849 197.909 512.195 197.39 514.741C196.346 519.851 194.512 527.165 197.866 531.611C199.678 534.013 202.053 534.361 204.735 535.172C207.944 536.144 211.108 537.277 214.332 538.198C226.114 541.563 238.845 542.221 250.92 544.075C253.877 544.529 256.62 544.486 259.595 544.272C261.43 544.139 265.947 544.768 267.472 543.623C268.289 543.01 267.876 542.242 268.291 541.493C268.881 540.428 269.596 539.996 270.6 539.334C272.263 538.237 274.187 537.596 274.468 535.332C275.154 529.786 268.512 526.848 264.961 524.45C260.421 521.385 254.939 520.201 250.123 517.699C247.465 516.319 244.901 514.754 242.34 513.188C241.23 512.509 238.979 511.74 238.205 510.671C237.416 509.58 238.189 508.022 238.516 506.463C239.866 500.021 239.409 493.434 240.108 486.923C240.806 480.402 240.616 473.841 240.846 467.286C241.083 460.537 241.618 453.804 242.028 447.064C242.406 440.839 242.786 434.513 242.849 428.282C242.909 422.503 243.664 416.834 243.843 411.018C243.903 409.044 243.564 405.463 244.82 403.791C245.922 402.325 249.569 402.509 251.271 402.252C255.856 401.558 260.221 400.949 264.755 400.53C275.543 399.534 287.549 398.8 297.751 394.877C301.958 393.259 307.556 391.048 308.953 386.008C310.558 380.213 308.462 373.091 308.393 367.167C308.319 360.841 306.561 354.67 305.243 348.54C303.824 341.942 302.931 335.231 301.397 328.658C299.99 322.626 297.708 317.284 295.55 311.558C294.674 309.236 289.689 301.233 291.236 299.259C292.068 298.196 295.069 297.927 296.287 297.44C298.91 296.393 301.539 295.202 303.958 293.71C307.188 291.718 314.261 288.423 314.588 283.997C314.898 279.767 310.914 275.492 308.889 272.17C305.627 266.817 301.511 262.137 298.404 256.678C292.124 245.646 287.13 233.562 282.551 221.673C280.156 215.453 279.374 209.596 278.98 202.957C285.935 202.974 293.014 203.867 299.924 202.852C307.445 201.748 314.977 199.887 322.432 198.354C336.009 195.562 349.044 192.41 361.621 186.123C373.398 180.236 385.349 173.792 395.1 164.447C400.143 159.615 405.286 154.69 409.64 149.165C414.113 143.488 417.477 137.039 420.929 130.667C424.738 123.633 427.769 116.24 430.166 108.547C430.649 107 430.652 105.03 431.269 103.569C431.964 101.92 433.231 101.876 434.554 101.007C436.414 99.7847 437.652 95.6938 434.423 95.0754Z" fill="black"/>
<path fill-rule="evenodd" clip-rule="evenodd" d="M272.5 16.3371C274.09 17.7623 280.943 22.7823 283.155 21.5617C285.887 20.0548 281.563 15.5157 280.399 14.3966C278.917 12.9729 273.624 8.66579 271.598 9.06561C267.546 9.86525 271.069 15.0545 272.5 16.3371Z" fill="black"/>
<path fill-rule="evenodd" clip-rule="evenodd" d="M275.884 67.8589C276.783 66.0142 279.172 65.336 280.277 63.5511C281.606 61.4051 282.217 59.527 281.727 56.8954C278.325 58.0903 274.454 61.7071 272.178 64.5351C270.275 66.8988 267.573 71.8376 272.538 71.8503C272.495 71.1475 272.451 70.4431 272.407 69.7409C273.897 69.9668 275.209 69.2489 275.884 67.8589Z" fill="black"/>
<path fill-rule="evenodd" clip-rule="evenodd" d="M259.678 37.1681C261.871 37.8259 263.681 37.7327 265.922 37.7841C267.548 37.822 269.77 38.7546 271.088 37.7034C269.918 36.9968 271.396 36.9577 271.107 36.2687C270.864 35.6943 270.402 35.8825 270.027 35.4174C268.688 33.7607 267.524 33.7809 265.401 33.4363C263.756 33.168 261.337 32.5493 259.757 33.4024C258.094 34.3005 257.45 36.4999 259.678 37.1681Z" fill="black"/>
<path fill-rule="evenodd" clip-rule="evenodd" d="M290.898 87.986C292.316 86.7447 293.863 83.1511 294.15 81.2967C294.262 80.5698 293.76 80.0135 293.82 79.4789C293.935 78.4597 295.942 76.4901 293.839 75.6541C292 74.9221 290.272 80.608 289.805 81.8485C289.325 83.1174 288.019 85.5895 288.42 86.8165C288.753 87.835 289.94 88.8235 290.898 87.986Z" fill="black"/>
<path fill-rule="evenodd" clip-rule="evenodd" d="M307.867 11.0303C309.15 9.78747 309.963 8.37789 309.83 6.66876C309.724 5.32244 308.758 0.680722 307.67 0.817186C304.059 1.27197 305.683 13.1468 307.867 11.0303Z" fill="black"/>
<path fill-rule="evenodd" clip-rule="evenodd" d="M231.633 218.556C231.336 217.421 230.256 210.482 228.387 210.955C226.968 211.314 228.443 217.42 228.509 218.224C228.647 219.905 225.55 219.85 224.111 219.623C221.829 219.263 222.012 217.868 221.67 215.703C221.542 214.885 221.048 211.187 219.413 212.541C218.308 213.457 219.098 218.016 219.189 219.056C219.508 222.659 219.883 228.812 221.936 232.083C222.755 233.389 223.491 234.032 224.351 232.359C225.221 230.665 223.251 225.504 222.907 223.772C224.531 223.937 229.208 223.387 230.187 225.148C231.081 226.755 229.651 231.347 232.518 231.72C234.219 231.941 233.911 229.885 233.747 228.305C233.404 224.988 232.471 221.76 231.633 218.556Z" fill="black"/>
<path fill-rule="evenodd" clip-rule="evenodd" d="M235.99 216.951C234.106 217.838 236.47 230.78 239.226 230.363C242.442 229.875 237.784 216.105 235.99 216.951Z" fill="black"/>
<path fill-rule="evenodd" clip-rule="evenodd" d="M233.891 212.666C233.658 215.579 237.287 216.665 237.459 213.499C237.591 211.056 234.135 209.602 233.891 212.666Z" fill="black"/>
<path fill-rule="evenodd" clip-rule="evenodd" d="M213.969 135.406C215.626 141.849 230.707 144.589 228.676 135.9C227.658 131.55 223.408 135.415 220.441 134.909C218.521 134.581 212.803 130.863 213.969 135.406Z" fill="black"/>
<path fill-rule="evenodd" clip-rule="evenodd" d="M210.182 123.914C210.891 120.467 203.664 116.661 201.041 117.61C197.205 119 197.221 127.879 200.148 130.24C200.533 130.55 201.713 131.291 202.292 130.7C203.204 129.766 202.207 130.021 201.994 129.089C201.656 127.606 200.551 125.702 201.652 124.015C203.733 120.828 209.166 128.853 210.182 123.914Z" fill="black"/>
<path fill-rule="evenodd" clip-rule="evenodd" d="M188.144 140.647C185.539 140.494 183.402 144.715 187.236 144.361C187.97 144.293 189.547 144.1 189.973 143.295C190.678 141.962 189.29 140.714 188.144 140.647Z" fill="black"/>
<path fill-rule="evenodd" clip-rule="evenodd" d="M314.56 40.0429C313.668 38.6968 311.798 36.5305 310.189 37.8807C308.763 39.078 309.012 42.0333 309.56 43.5018C311.032 47.4553 314.509 50.9772 318.444 48.6995C317.076 45.8421 316.307 42.6781 314.56 40.0429Z" fill="black"/>
<defs>
<linearGradient id="paint0_linear" x1="138.566" y1="388.521" x2="306.977" y2="388.521" gradientUnits="userSpaceOnUse">
<stop stop-color="#0CEBEB"/>
<stop offset="0.5" stop-color="#20E3B2"/>
<stop offset="1" stop-color="#29FFC6"/>
</linearGradient>
</defs>
</svg>
