<svg width="471" height="378" viewBox="0 0 471 378" fill="none" xmlns="http://www.w3.org/2000/svg">
<path d="M5 42L20 27L35 42L50 27L65 42L80 27L95 42L110 27L125 42" stroke="url(#paint0_linear)" stroke-width="7" stroke-linecap="square"/>
<path fill-rule="evenodd" clip-rule="evenodd" d="M277.981 12.9761C283.754 12.8513 289.588 13.008 295.466 13.4586C297.018 13.5776 298.563 13.7163 300.102 13.8744L457.06 169.565C457.855 176.809 458.206 184.173 458.086 191.626L277.981 12.9761ZM241.629 17.583C247.511 16.2 253.5 15.1141 259.576 14.3408L456.839 210.01C456.108 216.111 455.07 222.106 453.741 227.982L241.629 17.583ZM210.986 27.8534C215.963 25.6565 221.055 23.6845 226.25 21.9494L449.506 243.402C447.811 248.624 445.881 253.733 443.73 258.717L210.986 27.8534ZM184.58 42.3252C188.852 39.4848 193.252 36.8274 197.768 34.3632L437.325 271.984C434.891 276.526 432.266 280.943 429.46 285.228L184.58 42.3252ZM161.766 60.3611C165.419 56.9497 169.216 53.6941 173.145 50.6037L421.26 296.715C418.192 300.668 414.96 304.484 411.576 308.154L161.766 60.3611ZM142.326 81.7432C145.379 77.776 148.596 73.9456 151.966 70.2615L401.737 318.014C398.068 321.412 394.257 324.653 390.314 327.729L142.326 81.7432ZM126.351 106.563C128.767 102.006 131.377 97.5724 134.168 93.272L378.838 335.966C374.549 338.791 370.133 341.433 365.602 343.881L126.351 106.563ZM113.591 137.442C115.422 131.437 117.563 125.577 119.994 119.878L352.336 350.343C346.644 352.826 340.802 355.016 334.83 356.894L113.591 137.442ZM106.607 173.472C107.216 166.547 108.22 159.749 109.595 153.099L319.212 361.022C312.548 362.458 305.754 363.514 298.856 364.168L106.607 173.472ZM108.326 218.134C106.919 209.738 106.113 201.157 105.95 192.44L279.851 364.937C276.109 364.887 272.344 364.719 268.561 364.429C263.674 364.054 258.85 363.484 254.095 362.726L108.326 218.134ZM138.745 291.265C128.506 276.959 120.376 261.092 114.768 244.145L228.053 356.515C210.979 351.037 195.108 343.049 180.835 333.015L138.745 291.265ZM452.737 145.656L324.048 18.0067C335.546 20.8174 346.57 24.7437 357.009 29.6569L440.763 112.734C445.805 123.2 449.835 134.219 452.737 145.656Z" fill="url(#paint1_linear)"/>
<defs>
<linearGradient id="paint0_linear" x1="5" y1="34.5" x2="125" y2="34.5" gradientUnits="userSpaceOnUse">
<stop stop-color="#0CEBEB"/>
<stop offset="0.5" stop-color="#20E3B2"/>
<stop offset="1" stop-color="#29FFC6"/>
</linearGradient>
<linearGradient id="paint1_linear" x1="295.391" y1="13.4528" x2="268.485" y2="364.423" gradientUnits="userSpaceOnUse">
<stop stop-color="#0CEBEB"/>
<stop offset="0.5" stop-color="#20E3B2"/>
<stop offset="1" stop-color="#29FFC6"/>
</linearGradient>
</defs>
</svg>
