<svg width="168" height="228" viewBox="0 0 168 228" fill="none" xmlns="http://www.w3.org/2000/svg">
<ellipse cx="162.558" cy="27.6556" rx="4.14534" ry="4.14993" transform="rotate(89.8805 162.558 27.6556)" fill="url(#paint0_linear)"/>
<ellipse cx="162.593" cy="44.4495" rx="4.14534" ry="4.14993" transform="rotate(89.8805 162.593 44.4495)" fill="url(#paint1_linear)"/>
<ellipse cx="162.628" cy="61.2433" rx="4.14534" ry="4.14993" transform="rotate(89.8805 162.628 61.2433)" fill="url(#paint2_linear)"/>
<ellipse cx="162.663" cy="78.0373" rx="4.14534" ry="4.14993" transform="rotate(89.8805 162.663 78.0373)" fill="url(#paint3_linear)"/>
<ellipse cx="162.698" cy="94.8312" rx="4.14534" ry="4.14993" transform="rotate(89.8805 162.698 94.8312)" fill="url(#paint4_linear)"/>
<ellipse cx="162.733" cy="111.625" rx="4.14534" ry="4.14993" transform="rotate(89.8805 162.733 111.625)" fill="url(#paint5_linear)"/>
<ellipse cx="162.768" cy="128.419" rx="4.14534" ry="4.14993" transform="rotate(89.8805 162.768 128.419)" fill="url(#paint6_linear)"/>
<ellipse cx="146.597" cy="27.6889" rx="4.14534" ry="4.14993" transform="rotate(89.8805 146.597 27.6889)" fill="url(#paint7_linear)"/>
<ellipse cx="146.632" cy="44.4828" rx="4.14534" ry="4.14993" transform="rotate(89.8805 146.632 44.4828)" fill="url(#paint8_linear)"/>
<ellipse cx="146.667" cy="61.2767" rx="4.14534" ry="4.14993" transform="rotate(89.8805 146.667 61.2767)" fill="url(#paint9_linear)"/>
<ellipse cx="146.702" cy="78.0706" rx="4.14534" ry="4.14993" transform="rotate(89.8805 146.702 78.0706)" fill="url(#paint10_linear)"/>
<ellipse cx="146.737" cy="94.8646" rx="4.14534" ry="4.14993" transform="rotate(89.8805 146.737 94.8646)" fill="url(#paint11_linear)"/>
<ellipse cx="146.772" cy="111.658" rx="4.14534" ry="4.14993" transform="rotate(89.8805 146.772 111.658)" fill="url(#paint12_linear)"/>
<ellipse cx="146.807" cy="128.452" rx="4.14534" ry="4.14993" transform="rotate(89.8805 146.807 128.452)" fill="url(#paint13_linear)"/>
<ellipse cx="130.635" cy="27.7221" rx="4.14534" ry="4.14993" transform="rotate(89.8805 130.635 27.7221)" fill="url(#paint14_linear)"/>
<ellipse cx="130.67" cy="44.516" rx="4.14534" ry="4.14993" transform="rotate(89.8805 130.67 44.516)" fill="url(#paint15_linear)"/>
<ellipse cx="130.705" cy="61.3099" rx="4.14534" ry="4.14993" transform="rotate(89.8805 130.705 61.3099)" fill="url(#paint16_linear)"/>
<ellipse cx="130.741" cy="78.1038" rx="4.14534" ry="4.14993" transform="rotate(89.8805 130.741 78.1038)" fill="url(#paint17_linear)"/>
<ellipse cx="130.776" cy="94.8978" rx="4.14534" ry="4.14993" transform="rotate(89.8805 130.776 94.8978)" fill="url(#paint18_linear)"/>
<ellipse cx="130.811" cy="111.692" rx="4.14534" ry="4.14993" transform="rotate(89.8805 130.811 111.692)" fill="url(#paint19_linear)"/>
<ellipse cx="130.846" cy="128.486" rx="4.14534" ry="4.14993" transform="rotate(89.8805 130.846 128.486)" fill="url(#paint20_linear)"/>
<ellipse cx="114.674" cy="27.7554" rx="4.14534" ry="4.14993" transform="rotate(89.8805 114.674 27.7554)" fill="url(#paint21_linear)"/>
<ellipse cx="114.709" cy="44.5494" rx="4.14534" ry="4.14993" transform="rotate(89.8805 114.709 44.5494)" fill="url(#paint22_linear)"/>
<ellipse cx="114.744" cy="61.3432" rx="4.14534" ry="4.14993" transform="rotate(89.8805 114.744 61.3432)" fill="url(#paint23_linear)"/>
<ellipse cx="114.779" cy="78.1371" rx="4.14534" ry="4.14993" transform="rotate(89.8805 114.779 78.1371)" fill="url(#paint24_linear)"/>
<ellipse cx="114.814" cy="94.9311" rx="4.14534" ry="4.14993" transform="rotate(89.8805 114.814 94.9311)" fill="url(#paint25_linear)"/>
<ellipse cx="114.849" cy="111.725" rx="4.14534" ry="4.14993" transform="rotate(89.8805 114.849 111.725)" fill="url(#paint26_linear)"/>
<ellipse cx="114.884" cy="128.519" rx="4.14534" ry="4.14993" transform="rotate(89.8805 114.884 128.519)" fill="url(#paint27_linear)"/>
<ellipse cx="98.713" cy="27.7886" rx="4.14534" ry="4.14993" transform="rotate(89.8805 98.713 27.7886)" fill="url(#paint28_linear)"/>
<ellipse cx="98.748" cy="44.5826" rx="4.14534" ry="4.14993" transform="rotate(89.8805 98.748 44.5826)" fill="url(#paint29_linear)"/>
<ellipse cx="98.783" cy="61.3764" rx="4.14534" ry="4.14993" transform="rotate(89.8805 98.783 61.3764)" fill="url(#paint30_linear)"/>
<ellipse cx="98.818" cy="78.1703" rx="4.14534" ry="4.14993" transform="rotate(89.8805 98.818 78.1703)" fill="url(#paint31_linear)"/>
<ellipse cx="98.853" cy="94.9643" rx="4.14534" ry="4.14993" transform="rotate(89.8805 98.853 94.9643)" fill="url(#paint32_linear)"/>
<ellipse cx="98.8881" cy="111.758" rx="4.14534" ry="4.14993" transform="rotate(89.8805 98.8881 111.758)" fill="url(#paint33_linear)"/>
<ellipse cx="98.9231" cy="128.552" rx="4.14534" ry="4.14993" transform="rotate(89.8805 98.9231 128.552)" fill="url(#paint34_linear)"/>
<ellipse cx="83.8158" cy="27.8198" rx="4.14534" ry="4.14993" transform="rotate(89.8805 83.8158 27.8198)" fill="url(#paint35_linear)"/>
<ellipse cx="83.8508" cy="44.6137" rx="4.14534" ry="4.14993" transform="rotate(89.8805 83.8508 44.6137)" fill="url(#paint36_linear)"/>
<ellipse cx="83.8858" cy="61.4075" rx="4.14534" ry="4.14993" transform="rotate(89.8805 83.8858 61.4075)" fill="url(#paint37_linear)"/>
<ellipse cx="83.9209" cy="78.2015" rx="4.14534" ry="4.14993" transform="rotate(89.8805 83.9209 78.2015)" fill="url(#paint38_linear)"/>
<ellipse cx="83.9559" cy="94.9954" rx="4.14534" ry="4.14993" transform="rotate(89.8805 83.9559 94.9954)" fill="url(#paint39_linear)"/>
<ellipse cx="83.9909" cy="111.789" rx="4.14534" ry="4.14993" transform="rotate(89.8805 83.9909 111.789)" fill="url(#paint40_linear)"/>
<ellipse cx="84.0259" cy="128.583" rx="4.14534" ry="4.14993" transform="rotate(89.8805 84.0259 128.583)" fill="url(#paint41_linear)"/>
<ellipse cx="68.7059" cy="27.8512" rx="4.14534" ry="4.14993" transform="rotate(89.8805 68.7059 27.8512)" fill="url(#paint42_linear)"/>
<ellipse cx="68.7409" cy="44.6452" rx="4.14534" ry="4.14993" transform="rotate(89.8805 68.7409 44.6452)" fill="url(#paint43_linear)"/>
<ellipse cx="68.7759" cy="61.439" rx="4.14534" ry="4.14993" transform="rotate(89.8805 68.7759 61.439)" fill="url(#paint44_linear)"/>
<ellipse cx="68.8109" cy="78.233" rx="4.14534" ry="4.14993" transform="rotate(89.8805 68.8109 78.233)" fill="url(#paint45_linear)"/>
<ellipse cx="68.8459" cy="95.0269" rx="4.14534" ry="4.14993" transform="rotate(89.8805 68.8459 95.0269)" fill="url(#paint46_linear)"/>
<ellipse cx="68.8809" cy="111.821" rx="4.14534" ry="4.14993" transform="rotate(89.8805 68.8809 111.821)" fill="url(#paint47_linear)"/>
<ellipse cx="68.9159" cy="128.615" rx="4.14534" ry="4.14993" transform="rotate(89.8805 68.9159 128.615)" fill="url(#paint48_linear)"/>
<path fill-rule="evenodd" clip-rule="evenodd" d="M0.750421 12.3533C4.71638 11.9546 8.73874 11.7463 12.8082 11.7378C13.8822 11.7355 14.953 11.7472 16.0204 11.7727L132.459 110.395C133.398 115.337 134.038 120.385 134.36 125.52L0.750421 12.3533ZM-24.0133 17.4933C-20.0406 16.2229 -15.9788 15.1511 -11.8397 14.2898L134.498 138.237C134.326 142.475 133.936 146.656 133.34 150.771L-24.0133 17.4933ZM-44.5412 26.2208C-41.2361 24.4394 -37.8388 22.8065 -34.3585 21.3311L131.262 161.611C130.379 165.296 129.328 168.916 128.117 172.462L-44.5412 26.2208ZM-61.9272 37.6097C-59.1414 35.4237 -56.2576 33.3567 -53.2835 31.4164L124.429 181.938C123.001 185.195 121.434 188.377 119.735 191.477L-61.9272 37.6097ZM-76.6476 51.2563C-74.3186 48.711 -71.8826 46.2651 -69.3467 43.9257L114.716 199.826C112.819 202.712 110.802 205.513 108.672 208.221L-76.6476 51.2563ZM-88.8653 67.0225C-86.9794 64.1273 -84.9733 61.3173 -82.854 58.5997L102.436 215.539C100.096 218.076 97.6493 220.513 95.1029 222.843L-88.8653 67.0225ZM-98.5125 84.9663C-97.0965 81.6998 -95.5412 78.5077 -93.8539 75.3974L87.6525 229.133C84.8548 231.309 81.9593 233.366 78.9737 235.296L-98.5125 84.9663ZM-105.619 106.905C-104.684 102.674 -103.528 98.5258 -102.165 94.4729L70.1961 240.462C66.4141 242.479 62.5129 244.302 58.5055 245.917L-105.619 106.905ZM-108.472 132.075C-108.428 127.277 -108.105 122.545 -107.52 117.895L47.9826 249.605C43.4751 250.954 38.8575 252.049 34.1463 252.872L-108.472 132.075ZM-104.869 162.714C-106.292 157.013 -107.311 151.152 -107.896 145.163L21.111 254.432C18.5334 254.6 15.9339 254.688 13.3148 254.694C9.93221 254.701 6.58167 254.57 3.26844 254.306L-104.869 162.714ZM-79.9747 211.386C-87.7954 202.097 -94.2494 191.619 -99.0265 180.263L-14.9874 251.443C-27.0322 248.599 -38.386 243.963 -48.7506 237.832L-79.9747 211.386ZM128.188 94.1781L32.7217 13.3183C40.7855 14.6292 48.5836 16.7335 56.033 19.5485L118.165 72.1739C122.201 79.102 125.572 86.4659 128.188 94.1781Z" fill="url(#paint49_linear)"/>
<defs>
<linearGradient id="paint0_linear" x1="158.413" y1="27.6556" x2="166.703" y2="27.6556" gradientUnits="userSpaceOnUse">
<stop stop-color="#0CEBEB"/>
<stop offset="0.5" stop-color="#20E3B2"/>
<stop offset="1" stop-color="#29FFC6"/>
</linearGradient>
<linearGradient id="paint1_linear" x1="158.448" y1="44.4495" x2="166.738" y2="44.4495" gradientUnits="userSpaceOnUse">
<stop stop-color="#0CEBEB"/>
<stop offset="0.5" stop-color="#20E3B2"/>
<stop offset="1" stop-color="#29FFC6"/>
</linearGradient>
<linearGradient id="paint2_linear" x1="158.483" y1="61.2433" x2="166.773" y2="61.2433" gradientUnits="userSpaceOnUse">
<stop stop-color="#0CEBEB"/>
<stop offset="0.5" stop-color="#20E3B2"/>
<stop offset="1" stop-color="#29FFC6"/>
</linearGradient>
<linearGradient id="paint3_linear" x1="158.518" y1="78.0373" x2="166.808" y2="78.0373" gradientUnits="userSpaceOnUse">
<stop stop-color="#0CEBEB"/>
<stop offset="0.5" stop-color="#20E3B2"/>
<stop offset="1" stop-color="#29FFC6"/>
</linearGradient>
<linearGradient id="paint4_linear" x1="158.553" y1="94.8312" x2="166.843" y2="94.8312" gradientUnits="userSpaceOnUse">
<stop stop-color="#0CEBEB"/>
<stop offset="0.5" stop-color="#20E3B2"/>
<stop offset="1" stop-color="#29FFC6"/>
</linearGradient>
<linearGradient id="paint5_linear" x1="158.588" y1="111.625" x2="166.878" y2="111.625" gradientUnits="userSpaceOnUse">
<stop stop-color="#0CEBEB"/>
<stop offset="0.5" stop-color="#20E3B2"/>
<stop offset="1" stop-color="#29FFC6"/>
</linearGradient>
<linearGradient id="paint6_linear" x1="158.623" y1="128.419" x2="166.913" y2="128.419" gradientUnits="userSpaceOnUse">
<stop stop-color="#0CEBEB"/>
<stop offset="0.5" stop-color="#20E3B2"/>
<stop offset="1" stop-color="#29FFC6"/>
</linearGradient>
<linearGradient id="paint7_linear" x1="142.451" y1="27.6889" x2="150.742" y2="27.6889" gradientUnits="userSpaceOnUse">
<stop stop-color="#0CEBEB"/>
<stop offset="0.5" stop-color="#20E3B2"/>
<stop offset="1" stop-color="#29FFC6"/>
</linearGradient>
<linearGradient id="paint8_linear" x1="142.486" y1="44.4828" x2="150.777" y2="44.4828" gradientUnits="userSpaceOnUse">
<stop stop-color="#0CEBEB"/>
<stop offset="0.5" stop-color="#20E3B2"/>
<stop offset="1" stop-color="#29FFC6"/>
</linearGradient>
<linearGradient id="paint9_linear" x1="142.521" y1="61.2767" x2="150.812" y2="61.2767" gradientUnits="userSpaceOnUse">
<stop stop-color="#0CEBEB"/>
<stop offset="0.5" stop-color="#20E3B2"/>
<stop offset="1" stop-color="#29FFC6"/>
</linearGradient>
<linearGradient id="paint10_linear" x1="142.556" y1="78.0706" x2="150.847" y2="78.0706" gradientUnits="userSpaceOnUse">
<stop stop-color="#0CEBEB"/>
<stop offset="0.5" stop-color="#20E3B2"/>
<stop offset="1" stop-color="#29FFC6"/>
</linearGradient>
<linearGradient id="paint11_linear" x1="142.591" y1="94.8646" x2="150.882" y2="94.8646" gradientUnits="userSpaceOnUse">
<stop stop-color="#0CEBEB"/>
<stop offset="0.5" stop-color="#20E3B2"/>
<stop offset="1" stop-color="#29FFC6"/>
</linearGradient>
<linearGradient id="paint12_linear" x1="142.626" y1="111.658" x2="150.917" y2="111.658" gradientUnits="userSpaceOnUse">
<stop stop-color="#0CEBEB"/>
<stop offset="0.5" stop-color="#20E3B2"/>
<stop offset="1" stop-color="#29FFC6"/>
</linearGradient>
<linearGradient id="paint13_linear" x1="142.661" y1="128.452" x2="150.952" y2="128.452" gradientUnits="userSpaceOnUse">
<stop stop-color="#0CEBEB"/>
<stop offset="0.5" stop-color="#20E3B2"/>
<stop offset="1" stop-color="#29FFC6"/>
</linearGradient>
<linearGradient id="paint14_linear" x1="126.49" y1="27.7221" x2="134.781" y2="27.7221" gradientUnits="userSpaceOnUse">
<stop stop-color="#0CEBEB"/>
<stop offset="0.5" stop-color="#20E3B2"/>
<stop offset="1" stop-color="#29FFC6"/>
</linearGradient>
<linearGradient id="paint15_linear" x1="126.525" y1="44.516" x2="134.816" y2="44.516" gradientUnits="userSpaceOnUse">
<stop stop-color="#0CEBEB"/>
<stop offset="0.5" stop-color="#20E3B2"/>
<stop offset="1" stop-color="#29FFC6"/>
</linearGradient>
<linearGradient id="paint16_linear" x1="126.56" y1="61.3099" x2="134.851" y2="61.3099" gradientUnits="userSpaceOnUse">
<stop stop-color="#0CEBEB"/>
<stop offset="0.5" stop-color="#20E3B2"/>
<stop offset="1" stop-color="#29FFC6"/>
</linearGradient>
<linearGradient id="paint17_linear" x1="126.595" y1="78.1038" x2="134.886" y2="78.1038" gradientUnits="userSpaceOnUse">
<stop stop-color="#0CEBEB"/>
<stop offset="0.5" stop-color="#20E3B2"/>
<stop offset="1" stop-color="#29FFC6"/>
</linearGradient>
<linearGradient id="paint18_linear" x1="126.63" y1="94.8978" x2="134.921" y2="94.8978" gradientUnits="userSpaceOnUse">
<stop stop-color="#0CEBEB"/>
<stop offset="0.5" stop-color="#20E3B2"/>
<stop offset="1" stop-color="#29FFC6"/>
</linearGradient>
<linearGradient id="paint19_linear" x1="126.665" y1="111.692" x2="134.956" y2="111.692" gradientUnits="userSpaceOnUse">
<stop stop-color="#0CEBEB"/>
<stop offset="0.5" stop-color="#20E3B2"/>
<stop offset="1" stop-color="#29FFC6"/>
</linearGradient>
<linearGradient id="paint20_linear" x1="126.7" y1="128.486" x2="134.991" y2="128.486" gradientUnits="userSpaceOnUse">
<stop stop-color="#0CEBEB"/>
<stop offset="0.5" stop-color="#20E3B2"/>
<stop offset="1" stop-color="#29FFC6"/>
</linearGradient>
<linearGradient id="paint21_linear" x1="110.529" y1="27.7554" x2="118.82" y2="27.7554" gradientUnits="userSpaceOnUse">
<stop stop-color="#0CEBEB"/>
<stop offset="0.5" stop-color="#20E3B2"/>
<stop offset="1" stop-color="#29FFC6"/>
</linearGradient>
<linearGradient id="paint22_linear" x1="110.564" y1="44.5494" x2="118.855" y2="44.5494" gradientUnits="userSpaceOnUse">
<stop stop-color="#0CEBEB"/>
<stop offset="0.5" stop-color="#20E3B2"/>
<stop offset="1" stop-color="#29FFC6"/>
</linearGradient>
<linearGradient id="paint23_linear" x1="110.599" y1="61.3432" x2="118.89" y2="61.3432" gradientUnits="userSpaceOnUse">
<stop stop-color="#0CEBEB"/>
<stop offset="0.5" stop-color="#20E3B2"/>
<stop offset="1" stop-color="#29FFC6"/>
</linearGradient>
<linearGradient id="paint24_linear" x1="110.634" y1="78.1371" x2="118.925" y2="78.1371" gradientUnits="userSpaceOnUse">
<stop stop-color="#0CEBEB"/>
<stop offset="0.5" stop-color="#20E3B2"/>
<stop offset="1" stop-color="#29FFC6"/>
</linearGradient>
<linearGradient id="paint25_linear" x1="110.669" y1="94.9311" x2="118.96" y2="94.9311" gradientUnits="userSpaceOnUse">
<stop stop-color="#0CEBEB"/>
<stop offset="0.5" stop-color="#20E3B2"/>
<stop offset="1" stop-color="#29FFC6"/>
</linearGradient>
<linearGradient id="paint26_linear" x1="110.704" y1="111.725" x2="118.995" y2="111.725" gradientUnits="userSpaceOnUse">
<stop stop-color="#0CEBEB"/>
<stop offset="0.5" stop-color="#20E3B2"/>
<stop offset="1" stop-color="#29FFC6"/>
</linearGradient>
<linearGradient id="paint27_linear" x1="110.739" y1="128.519" x2="119.03" y2="128.519" gradientUnits="userSpaceOnUse">
<stop stop-color="#0CEBEB"/>
<stop offset="0.5" stop-color="#20E3B2"/>
<stop offset="1" stop-color="#29FFC6"/>
</linearGradient>
<linearGradient id="paint28_linear" x1="94.5677" y1="27.7886" x2="102.858" y2="27.7886" gradientUnits="userSpaceOnUse">
<stop stop-color="#0CEBEB"/>
<stop offset="0.5" stop-color="#20E3B2"/>
<stop offset="1" stop-color="#29FFC6"/>
</linearGradient>
<linearGradient id="paint29_linear" x1="94.6027" y1="44.5826" x2="102.893" y2="44.5826" gradientUnits="userSpaceOnUse">
<stop stop-color="#0CEBEB"/>
<stop offset="0.5" stop-color="#20E3B2"/>
<stop offset="1" stop-color="#29FFC6"/>
</linearGradient>
<linearGradient id="paint30_linear" x1="94.6377" y1="61.3764" x2="102.928" y2="61.3764" gradientUnits="userSpaceOnUse">
<stop stop-color="#0CEBEB"/>
<stop offset="0.5" stop-color="#20E3B2"/>
<stop offset="1" stop-color="#29FFC6"/>
</linearGradient>
<linearGradient id="paint31_linear" x1="94.6727" y1="78.1703" x2="102.963" y2="78.1703" gradientUnits="userSpaceOnUse">
<stop stop-color="#0CEBEB"/>
<stop offset="0.5" stop-color="#20E3B2"/>
<stop offset="1" stop-color="#29FFC6"/>
</linearGradient>
<linearGradient id="paint32_linear" x1="94.7077" y1="94.9643" x2="102.998" y2="94.9643" gradientUnits="userSpaceOnUse">
<stop stop-color="#0CEBEB"/>
<stop offset="0.5" stop-color="#20E3B2"/>
<stop offset="1" stop-color="#29FFC6"/>
</linearGradient>
<linearGradient id="paint33_linear" x1="94.7427" y1="111.758" x2="103.033" y2="111.758" gradientUnits="userSpaceOnUse">
<stop stop-color="#0CEBEB"/>
<stop offset="0.5" stop-color="#20E3B2"/>
<stop offset="1" stop-color="#29FFC6"/>
</linearGradient>
<linearGradient id="paint34_linear" x1="94.7777" y1="128.552" x2="103.068" y2="128.552" gradientUnits="userSpaceOnUse">
<stop stop-color="#0CEBEB"/>
<stop offset="0.5" stop-color="#20E3B2"/>
<stop offset="1" stop-color="#29FFC6"/>
</linearGradient>
<linearGradient id="paint35_linear" x1="79.6705" y1="27.8198" x2="87.9611" y2="27.8198" gradientUnits="userSpaceOnUse">
<stop stop-color="#0CEBEB"/>
<stop offset="0.5" stop-color="#20E3B2"/>
<stop offset="1" stop-color="#29FFC6"/>
</linearGradient>
<linearGradient id="paint36_linear" x1="79.7055" y1="44.6137" x2="87.9962" y2="44.6137" gradientUnits="userSpaceOnUse">
<stop stop-color="#0CEBEB"/>
<stop offset="0.5" stop-color="#20E3B2"/>
<stop offset="1" stop-color="#29FFC6"/>
</linearGradient>
<linearGradient id="paint37_linear" x1="79.7405" y1="61.4075" x2="88.0312" y2="61.4075" gradientUnits="userSpaceOnUse">
<stop stop-color="#0CEBEB"/>
<stop offset="0.5" stop-color="#20E3B2"/>
<stop offset="1" stop-color="#29FFC6"/>
</linearGradient>
<linearGradient id="paint38_linear" x1="79.7755" y1="78.2015" x2="88.0662" y2="78.2015" gradientUnits="userSpaceOnUse">
<stop stop-color="#0CEBEB"/>
<stop offset="0.5" stop-color="#20E3B2"/>
<stop offset="1" stop-color="#29FFC6"/>
</linearGradient>
<linearGradient id="paint39_linear" x1="79.8105" y1="94.9954" x2="88.1012" y2="94.9954" gradientUnits="userSpaceOnUse">
<stop stop-color="#0CEBEB"/>
<stop offset="0.5" stop-color="#20E3B2"/>
<stop offset="1" stop-color="#29FFC6"/>
</linearGradient>
<linearGradient id="paint40_linear" x1="79.8455" y1="111.789" x2="88.1362" y2="111.789" gradientUnits="userSpaceOnUse">
<stop stop-color="#0CEBEB"/>
<stop offset="0.5" stop-color="#20E3B2"/>
<stop offset="1" stop-color="#29FFC6"/>
</linearGradient>
<linearGradient id="paint41_linear" x1="79.8806" y1="128.583" x2="88.1712" y2="128.583" gradientUnits="userSpaceOnUse">
<stop stop-color="#0CEBEB"/>
<stop offset="0.5" stop-color="#20E3B2"/>
<stop offset="1" stop-color="#29FFC6"/>
</linearGradient>
<linearGradient id="paint42_linear" x1="64.5605" y1="27.8512" x2="72.8512" y2="27.8512" gradientUnits="userSpaceOnUse">
<stop stop-color="#0CEBEB"/>
<stop offset="0.5" stop-color="#20E3B2"/>
<stop offset="1" stop-color="#29FFC6"/>
</linearGradient>
<linearGradient id="paint43_linear" x1="64.5955" y1="44.6452" x2="72.8862" y2="44.6452" gradientUnits="userSpaceOnUse">
<stop stop-color="#0CEBEB"/>
<stop offset="0.5" stop-color="#20E3B2"/>
<stop offset="1" stop-color="#29FFC6"/>
</linearGradient>
<linearGradient id="paint44_linear" x1="64.6306" y1="61.439" x2="72.9212" y2="61.439" gradientUnits="userSpaceOnUse">
<stop stop-color="#0CEBEB"/>
<stop offset="0.5" stop-color="#20E3B2"/>
<stop offset="1" stop-color="#29FFC6"/>
</linearGradient>
<linearGradient id="paint45_linear" x1="64.6656" y1="78.233" x2="72.9562" y2="78.233" gradientUnits="userSpaceOnUse">
<stop stop-color="#0CEBEB"/>
<stop offset="0.5" stop-color="#20E3B2"/>
<stop offset="1" stop-color="#29FFC6"/>
</linearGradient>
<linearGradient id="paint46_linear" x1="64.7006" y1="95.0269" x2="72.9912" y2="95.0269" gradientUnits="userSpaceOnUse">
<stop stop-color="#0CEBEB"/>
<stop offset="0.5" stop-color="#20E3B2"/>
<stop offset="1" stop-color="#29FFC6"/>
</linearGradient>
<linearGradient id="paint47_linear" x1="64.7356" y1="111.821" x2="73.0263" y2="111.821" gradientUnits="userSpaceOnUse">
<stop stop-color="#0CEBEB"/>
<stop offset="0.5" stop-color="#20E3B2"/>
<stop offset="1" stop-color="#29FFC6"/>
</linearGradient>
<linearGradient id="paint48_linear" x1="64.7706" y1="128.615" x2="73.0613" y2="128.615" gradientUnits="userSpaceOnUse">
<stop stop-color="#0CEBEB"/>
<stop offset="0.5" stop-color="#20E3B2"/>
<stop offset="1" stop-color="#29FFC6"/>
</linearGradient>
<linearGradient id="paint49_linear" x1="12.7559" y1="11.7379" x2="13.2624" y2="254.694" gradientUnits="userSpaceOnUse">
<stop stop-color="#0CEBEB"/>
<stop offset="0.5" stop-color="#20E3B2"/>
<stop offset="1" stop-color="#29FFC6"/>
</linearGradient>
</defs>
</svg>
